<?xml version="1.0" standalone="no"?>
<!DOCTYPE svg PUBLIC "-//W3C//DTD SVG 20010904//EN"
 "http://www.w3.org/TR/2001/REC-SVG-20010904/DTD/svg10.dtd">
<svg version="1.0" xmlns="http://www.w3.org/2000/svg"
 width="44.000000pt" height="49.000000pt" viewBox="0 0 44.000000 49.000000"
 preserveAspectRatio="xMidYMid meet">

<g transform="translate(0.000000,49.000000) scale(0.100000,-0.100000)"
fill="#000000" stroke="none">
<path d="M270 439 c-22 -28 -40 -54 -40 -58 0 -4 -26 -26 -59 -49 -54 -38 -59
-45 -66 -89 -12 -87 -15 -92 -51 -99 -38 -7 -59 -27 -50 -49 4 -12 24 -15 93
-15 84 -1 87 -2 61 -16 -31 -16 -37 -48 -12 -58 26 -10 268 -7 284 4 19 12 20
12 -142 10 -94 -1 -138 2 -138 9 0 6 4 11 9 11 17 0 40 30 35 45 -5 12 -25 15
-90 15 -46 0 -84 4 -84 8 0 4 50 19 112 32 l111 24 40 63 c21 35 43 63 48 63
14 0 99 81 99 94 0 15 -92 106 -108 106 -6 0 -30 -23 -52 -51z m103 -91 c-20
-21 -43 -38 -49 -38 -16 0 -74 49 -74 62 0 6 16 31 36 55 l37 45 43 -43 44
-43 -37 -38z m-99 -27 l27 -29 -35 -55 c-29 -45 -41 -56 -71 -61 -20 -4 -44
-10 -53 -13 -11 -4 -6 6 12 25 17 18 36 32 44 32 7 0 12 8 10 17 -4 22 -38 30
-38 9 0 -8 -11 -28 -25 -43 l-24 -28 0 30 c2 54 13 76 59 110 25 19 50 35 56
35 5 0 23 -13 38 -29z"/>
</g>
</svg>
