<?xml version="1.0" standalone="no"?>
<!DOCTYPE svg PUBLIC "-//W3C//DTD SVG 20010904//EN"
 "http://www.w3.org/TR/2001/REC-SVG-20010904/DTD/svg10.dtd">
<svg version="1.0" xmlns="http://www.w3.org/2000/svg"
 width="44.000000pt" height="45.000000pt" viewBox="0 0 44.000000 45.000000"
 preserveAspectRatio="xMidYMid meet">

<g transform="translate(0.000000,45.000000) scale(0.100000,-0.100000)"
fill="#000000" stroke="none">
<path d="M90 306 l0 -145 -42 -3 -43 -3 -3 -59 c-5 -96 -4 -96 218 -96 168 0
189 2 203 18 15 16 17 47 17 225 l0 207 -175 0 -175 0 0 -144z m330 -69 c0
-137 -3 -196 -12 -205 -8 -8 -58 -12 -158 -12 l-145 0 -4 205 -3 205 161 0
161 0 0 -193z m-340 -151 c0 -41 -4 -55 -16 -60 -28 -11 -44 13 -44 65 0 48 1
49 30 49 30 0 30 -1 30 -54z"/>
<path d="M150 350 c0 -17 24 -29 42 -19 27 14 22 26 -12 26 -16 0 -30 -3 -30
-7z"/>
<path d="M250 350 c0 -6 30 -10 71 -10 44 0 68 4 64 10 -3 6 -35 10 -71 10
-36 0 -64 -4 -64 -10z"/>
<path d="M150 283 c0 -6 7 -16 15 -23 12 -10 18 -10 30 0 21 18 19 33 -3 21
-13 -7 -23 -6 -30 1 -8 8 -12 8 -12 1z"/>
<path d="M278 273 c23 -2 59 -2 80 0 20 2 1 4 -43 4 -44 0 -61 -2 -37 -4z"/>
<path d="M150 200 c0 -4 7 -13 15 -20 12 -10 18 -10 30 0 23 19 18 27 -15 27
-16 0 -30 -4 -30 -7z"/>
<path d="M245 200 c-4 -6 22 -10 70 -10 48 0 74 4 70 10 -3 6 -35 10 -70 10
-35 0 -67 -4 -70 -10z"/>
<path d="M150 132 c0 -5 7 -15 15 -22 12 -10 18 -10 30 0 8 7 15 17 15 22 0 6
-7 5 -15 -2 -12 -10 -18 -10 -30 0 -8 7 -15 8 -15 2z"/>
<path d="M245 120 c8 -13 132 -13 140 0 4 6 -22 10 -70 10 -48 0 -74 -4 -70
-10z"/>
</g>
</svg>
