<svg width="14" height="29" viewBox="0 0 14 29" fill="none" xmlns="http://www.w3.org/2000/svg">
<path d="M3.14008 5.59424V9.46719H0.250732V14.2623H3.14008V28.4016H8.98024V14.2623H12.9761C13.222 12.7459 13.386 11.1475 13.4679 9.46719H9.04172V6.20899C9.04172 5.96309 9.17491 5.70694 9.44131 5.44055C9.7077 5.17415 10.0048 5.04096 10.3327 5.04096H13.5294V0.122925H9.16467C8.01713 0.122925 7.02327 0.297105 6.18311 0.645466C5.34295 0.993826 4.73844 1.38317 4.36959 1.8135C4.00073 2.24383 3.71385 2.76637 3.50893 3.38112C3.30401 3.99588 3.19131 4.43645 3.17081 4.70284C3.15032 4.96924 3.14008 5.26637 3.14008 5.59424Z" fill="white"/>
</svg>
